<?xml version="1.0" encoding="UTF-8" standalone="no" ?>
<!DOCTYPE svg PUBLIC "-//W3C//DTD SVG 1.1//EN" "http://www.w3.org/Graphics/SVG/1.1/DTD/svg11.dtd">
<svg xmlns="http://www.w3.org/2000/svg" xmlns:xlink="http://www.w3.org/1999/xlink" version="1.1" width="1080" height="1080" viewBox="0 0 1080 1080" xml:space="preserve">
<desc>Created with Fabric.js 5.2.4</desc>
<defs>
</defs>
<rect x="0" y="0" width="100%" height="100%" fill="transparent"></rect>
<g transform="matrix(1 0 0 1 540 540)" id="30bd3f65-64e4-4ce8-b72e-e2f11054c2f0"  >
<rect style="stroke: none; stroke-width: 1; stroke-dasharray: none; stroke-linecap: butt; stroke-dashoffset: 0; stroke-linejoin: miter; stroke-miterlimit: 4; fill: rgb(255,255,255); fill-rule: nonzero; opacity: 1; visibility: hidden;" vector-effect="non-scaling-stroke"  x="-540" y="-540" rx="0" ry="0" width="1080" height="1080" />
</g>
<g transform="matrix(1 0 0 1 540 540)" id="9dad9746-7e53-4bd9-8a16-0d7acd904082"  >
</g>
<g transform="matrix(1 0 0 1 198.64 507.42)"  >
<path style="stroke: rgb(244,244,244); stroke-width: 2; stroke-dasharray: none; stroke-linecap: butt; stroke-dashoffset: 0; stroke-linejoin: miter; stroke-miterlimit: 10; fill: rgb(244,244,244); fill-rule: nonzero; opacity: 1;" vector-effect="non-scaling-stroke"  transform=" translate(-173.15, -171.85)" d="M 97.9 7.5 L 248.4 7.5 C 297.6 7.5 337.5 47.4 337.5 96.6 L 337.5 247.1 C 337.5 296.3 297.6 336.2 248.4 336.2 L 97.9 336.2 C 48.7 336.2 8.800000000000011 296.3 8.800000000000011 247.1 L 8.800000000000011 96.6 C 8.8 47.4 48.7 7.5 97.9 7.5 z" stroke-linecap="round" />
</g>
<g transform="matrix(1 0 0 1 201.18 507.42)"  >
<path style="stroke: none; stroke-width: 1; stroke-dasharray: none; stroke-linecap: butt; stroke-dashoffset: 0; stroke-linejoin: miter; stroke-miterlimit: 4; fill: rgb(78,92,166); fill-rule: nonzero; opacity: 1;" vector-effect="non-scaling-stroke"  transform=" translate(-168.45, -174.6)" d="M 165.4 287.8 C 158.8 287.8 152.3 287.6 146 287.2 C 139.7 286.79999999999995 133.5 286.2 127.4 285.4 C 121.30000000000001 284.59999999999997 115.4 283.7 109.80000000000001 282.7 C 104.20000000000002 281.7 98.80000000000001 280.5 93.60000000000001 279.09999999999997 L 93.60000000000001 232.89999999999998 C 100.4 233.49999999999997 107.7 233.99999999999997 115.60000000000001 234.39999999999998 C 123.50000000000001 234.79999999999998 131.5 235.09999999999997 139.60000000000002 235.29999999999998 C 147.70000000000002 235.49999999999997 155.20000000000002 235.6 162.20000000000002 235.6 C 167.70000000000002 235.7 173.3 235.2 178.70000000000002 234.1 C 183.10000000000002 233.1 186.4 231.5 188.60000000000002 229.29999999999998 C 190.8 227.1 191.90000000000003 224.1 191.90000000000003 220.29999999999998 L 191.90000000000003 216.7 C 191.90000000000003 212.29999999999998 190.40000000000003 209 187.30000000000004 206.79999999999998 C 184.10000000000005 204.6 180.20000000000005 203.39999999999998 176.30000000000004 203.49999999999997 L 160.50000000000003 203.49999999999997 C 137.30000000000004 203.49999999999997 119.70000000000003 198.39999999999998 107.70000000000003 188.19999999999996 C 95.70000000000003 177.99999999999997 89.70000000000003 160.89999999999995 89.70000000000003 136.89999999999998 L 89.70000000000003 127 C 89.70000000000003 105 96.30000000000003 88.5 109.50000000000003 77.7 C 122.70000000000003 66.9 141.70000000000005 61.400000000000006 166.50000000000003 61.400000000000006 C 175.40000000000003 61.400000000000006 184.20000000000002 61.800000000000004 193.10000000000002 62.7 C 201.40000000000003 63.6 209.20000000000002 64.7 216.50000000000003 66 C 223.80000000000004 67.3 230.40000000000003 68.6 236.20000000000002 70 L 236.20000000000002 116.2 C 227.00000000000003 115.4 216.60000000000002 114.7 205.10000000000002 114.2 C 193.60000000000002 113.7 183.20000000000002 113.4 173.70000000000002 113.4 C 168.70000000000002 113.4 163.70000000000002 113.80000000000001 158.70000000000002 114.60000000000001 C 154.3 115.4 150.9 117.00000000000001 148.50000000000003 119.4 C 146.10000000000002 121.80000000000001 144.90000000000003 125.30000000000001 144.90000000000003 129.9 L 144.90000000000003 132.9 C 144.90000000000003 137.9 146.50000000000003 141.70000000000002 149.70000000000005 144.3 C 152.90000000000003 146.9 157.80000000000004 148.20000000000002 164.40000000000003 148.20000000000002 L 184.20000000000005 148.20000000000002 C 198.20000000000005 148.20000000000002 209.80000000000004 150.8 219.10000000000005 156.10000000000002 C 228.10000000000005 161.10000000000002 235.40000000000006 168.60000000000002 240.10000000000005 177.70000000000002 C 244.80000000000004 186.8 247.10000000000005 197.10000000000002 247.20000000000005 208.70000000000002 L 247.20000000000005 218.60000000000002 C 247.20000000000005 237.60000000000002 243.90000000000003 252.10000000000002 237.30000000000004 262.1 C 230.70000000000005 272.1 221.30000000000004 278.90000000000003 209.10000000000005 282.3 C 197 286 182.4 287.8 165.4 287.8 z" stroke-linecap="round" />
</g>
<g transform="matrix(1 0 0 1 457.8 514.66)"  >
<path style="stroke: none; stroke-width: 1; stroke-dasharray: none; stroke-linecap: butt; stroke-dashoffset: 0; stroke-linejoin: miter; stroke-miterlimit: 4; fill: rgb(48,48,49); fill-rule: nonzero; opacity: 1;" vector-effect="non-scaling-stroke"  transform=" translate(-475.75, -184.25)" d="M 477.2 269.1 C 437.4 269.1 413.3 247.3 411.2 214.40000000000003 L 437 214.40000000000003 C 438.1 235.30000000000004 451.5 248.90000000000003 476.8 248.90000000000003 C 497.7 248.90000000000003 513.4 239.00000000000003 513.4 222.00000000000003 C 513.4 208.20000000000002 504.4 201.30000000000004 485.29999999999995 197.20000000000002 L 461.4 192.60000000000002 C 438.2 188.00000000000003 417 176.3 417 148.20000000000002 C 417 120.40000000000002 441.4 99.40000000000002 475.6 99.40000000000002 C 509.80000000000007 99.40000000000002 535.9 120.30000000000001 537.9 153.20000000000002 L 512.1 153.20000000000002 C 510.70000000000005 133.4 496.5 119.60000000000002 475.8 119.60000000000002 C 454.40000000000003 119.60000000000002 442.7 132.20000000000002 442.7 146.50000000000003 C 442.7 162.10000000000002 456.3 167.70000000000002 471.7 170.90000000000003 L 496.09999999999997 175.70000000000005 C 524.4 181.50000000000006 540.3 193.90000000000003 540.3 218.50000000000006 C 540.2 247.3 517.2 269.1 477.2 269.1 z" stroke-linecap="round" />
</g>
<g transform="matrix(1 0 0 1 815.06 540)"  >
<path style="stroke: none; stroke-width: 1; stroke-dasharray: none; stroke-linecap: butt; stroke-dashoffset: 0; stroke-linejoin: miter; stroke-miterlimit: 4; fill: rgb(48,48,49); fill-rule: nonzero; opacity: 1;" vector-effect="non-scaling-stroke"  transform=" translate(-883.7, -204.7)" d="M 794.1 266.8 L 794.1 144.9 L 815.7 144.9 L 815.7 165.1 C 824 151.1 837.1 142.6 853.9000000000001 142.6 C 871.8000000000001 142.6 885.4000000000001 151.79999999999998 890.9000000000001 167.9 C 899.4000000000001 152.3 913.4000000000001 142.6 932.1000000000001 142.6 C 957.2000000000002 142.6 973.3000000000002 158.9 973.3000000000002 187.89999999999998 L 973.3000000000002 266.79999999999995 L 950.1000000000001 266.79999999999995 L 950.1000000000001 195.29999999999995 C 950.1000000000001 175.09999999999997 941.1000000000001 163.09999999999997 924.1000000000001 163.09999999999997 C 908.2000000000002 163.09999999999997 895.4000000000001 176.39999999999998 895.4000000000001 196.89999999999998 L 895.4000000000001 266.79999999999995 L 872.2 266.79999999999995 L 872.2 195.29999999999995 C 872.2 175.09999999999997 863.2 163.09999999999997 846.2 163.09999999999997 C 830.1 163.09999999999997 817.5 176.39999999999998 817.5 196.89999999999998 L 817.5 266.79999999999995 L 794.1 266.79999999999995 z" stroke-linecap="round" />
</g>
<g transform="matrix(1 0 0 1 623.27 540)"  >
<path style="stroke: none; stroke-width: 1; stroke-dasharray: none; stroke-linecap: butt; stroke-dashoffset: 0; stroke-linejoin: miter; stroke-miterlimit: 4; fill: rgb(48,48,49); fill-rule: nonzero; opacity: 1;" vector-effect="non-scaling-stroke"  transform=" translate(-1047.3, -205.95)" d="M 1078.2 248 C 1070.6000000000001 261.6 1057 269.2 1039.1000000000001 269.2 C 1013.8000000000002 269.2 997.2000000000002 254.7 997.2000000000002 232.39999999999998 C 997.2000000000002 208.49999999999997 1016.3000000000002 196.09999999999997 1052.6000000000001 196.09999999999997 C 1059.7 196.09999999999997 1065.5000000000002 196.29999999999995 1075.4 197.49999999999997 L 1075.4 188.49999999999997 C 1075.4 170.99999999999997 1066 161.09999999999997 1049.9 161.09999999999997 C 1032.9 161.09999999999997 1022.5000000000001 171.19999999999996 1021.8000000000001 188.19999999999996 L 1000.6 188.19999999999996 C 1001.8000000000001 160.79999999999995 1021.3000000000001 142.69999999999996 1049.8 142.69999999999996 C 1079.8999999999999 142.69999999999996 1097.3999999999999 159.69999999999996 1097.3999999999999 188.69999999999996 L 1097.3999999999999 266.9 L 1078.1 266.9 L 1078.1 248 z M 1043.7 252.6 C 1063.2 252.6 1075.4 240.4 1075.4 221.79999999999998 L 1075.4 211.89999999999998 C 1066.4 210.7 1060 210.49999999999997 1054 210.49999999999997 C 1030.8 210.49999999999997 1019.3 217.39999999999998 1019.3 231.69999999999996 C 1019.3 244.3 1028.7 252.6 1043.7 252.6 z" stroke-linecap="round" />
</g>
</svg>